<?xml version="1.0" encoding="utf-8"?>
<!-- Generator: Adobe Illustrator 23.0.3, SVG Export Plug-In . SVG Version: 6.00 Build 0)  -->
<svg version="1.1" id="Capa_1" xmlns="http://www.w3.org/2000/svg" xmlns:xlink="http://www.w3.org/1999/xlink" x="0px" y="0px"
	 viewBox="0 0 956 382" style="enable-background:new 0 0 956 382;" xml:space="preserve">
<style type="text/css">
	.st0{enable-background:new    ;}
	.st1{fill:#FFFFFF;}
</style>
<g>
	<g class="st0">
		<path class="st1" d="M169.2,249.4h10.7l37.3,64.6v-64.6H229v90.5h-10.2l-37.8-65.4v65.4h-11.7V249.4z"/>
		<path class="st1" d="M296.4,285.8v-4.1h11.8V340h-11.8v-7.3c-5.7,5.8-12.2,8.8-19.7,8.8c-8.9,0-16.5-3.1-22.8-9.4
			c-6.3-6.3-9.4-13.9-9.4-22.8c0-8.9,3.1-16.5,9.4-22.8c6.3-6.3,13.9-9.4,22.8-9.4C284.2,277.1,290.7,280,296.4,285.8z M296.4,313.6
			V305c-0.7-3.7-2.5-7-5.4-10c-4-3.9-8.7-5.9-14.3-5.9c-5.6,0-10.3,2-14.3,5.9c-3.9,3.9-5.9,8.7-5.9,14.3c0,5.5,2,10.3,5.9,14.2
			c3.9,3.9,8.7,5.9,14.3,5.9c5.5,0,10.3-2,14.3-5.9C293.9,320.6,295.7,317.2,296.4,313.6z"/>
		<path class="st1" d="M332.5,281.7v-21.8h11.7v21.8h10.5v11.7h-10.5v46.5h-11.7v-46.5h-10.5v-11.7H332.5z"/>
		<path class="st1" d="M393,340.7c-7.4,0-13.3-2.2-17.8-6.7c-4.5-4.5-6.8-10.1-6.9-16.9v-35.4h11.8v35c0,3.4,1.2,6.2,3.7,8.7
			c2.5,2.4,5.5,3.6,9.2,3.6c3.4,0,6.3-1.2,8.7-3.6c2.5-2.4,3.7-5.3,3.7-8.7v-35h11.7v35.4c-0.1,6.8-2.4,12.4-6.8,16.9
			C405.8,338.5,400,340.7,393,340.7z"/>
		<path class="st1" d="M445.8,289.6c4.4-5.9,9.7-9,16.1-9.3v12.2c-4.3,0.2-7.7,1.6-10.2,4.1c-3.8,3.8-5.8,8.3-5.9,13.5v29.9h-11.7
			v-58.2h11.7V289.6z"/>
		<path class="st1" d="M491.1,326.8c2,1.7,5.5,2.6,10.7,2.6c5.6,0,10.4-2,14.3-5.9c0.5-0.5,1.5-1.7,3-3.5l11.7,4.2
			c-2.9,4-4.9,6.6-6.2,7.9c-6.3,6.3-13.9,9.4-22.8,9.4c-8.9,0-16.4-3.1-22.7-9.4c-6.3-6.3-9.4-13.9-9.4-22.8
			c0-8.9,3.1-16.5,9.4-22.8c6.3-6.3,13.9-9.4,22.7-9.4c7.6,0,14.3,2.3,20,6.9c0.9,0.8,1.9,1.6,2.8,2.5c0.4,0.4,1.5,1.6,3.2,3.6
			l-5.9,5.9L491.1,326.8z M510.7,290.6c-1.3-1-4.3-1.5-8.9-1.5c-5.5,0-10.3,2-14.2,5.9c-3.9,3.9-5.9,8.7-5.9,14.3
			c0,4.6,0.5,7.5,1.5,8.9L510.7,290.6z"/>
		<path class="st1" d="M607.5,293.5c-6.4-2.1-11.6-5.2-15.6-9.2c-4-4-6-8.9-6-14.8c0-5.8,2.1-10.7,6.2-14.9c4.1-4.1,9.1-6.2,15-6.2
			c5.8,0,10.8,2.1,14.9,6.2c2.3,2.3,4.3,5.9,5.9,10.8l-10.6,4.2c-1.3-3.5-2.5-5.7-3.5-6.8c-1.8-1.8-4.1-2.7-6.7-2.7
			c-2.6,0-4.9,0.9-6.7,2.7c-1.8,1.8-2.8,4.1-2.8,6.7s0.9,4.9,2.8,6.7c2.1,2,4.9,3.9,8.6,5.6c7.1,2.3,13.1,5.9,18,10.9
			c5.5,5.5,8.3,12.1,8.3,19.9s-2.8,14.5-8.3,20c-5.5,5.5-12.2,8.3-19.9,8.3c-7.8,0-14.5-2.8-20-8.3c-4.4-4.4-7.2-10.5-8.4-18.3
			l11.4-4.1c0.7,6.7,2.5,11.4,5.3,14.2c3.2,3.2,7.1,4.9,11.7,4.9s8.5-1.6,11.7-4.9c3.2-3.2,4.9-7.2,4.9-11.8c0-4.6-1.6-8.5-4.9-11.7
			C615.8,297.8,612,295.4,607.5,293.5z"/>
		<path class="st1" d="M658.5,332.7v26.8h-11.7v-77.8h11.7v5.3c5.7-6.6,12.2-10,19.7-10c8.9,0,16.5,3.1,22.8,9.4s9.4,13.9,9.4,22.8
			c0,8.9-3.1,16.5-9.4,22.8c-6.3,6.3-13.9,9.4-22.8,9.4C670.7,341.5,664.1,338.6,658.5,332.7z M658.5,304.7v9.1
			c0.7,3.6,2.5,6.8,5.5,9.7c3.9,3.9,8.7,5.9,14.3,5.9c5.6,0,10.3-2,14.3-5.9c3.9-3.9,5.9-8.7,5.9-14.3c0-5.5-2-10.3-5.9-14.3
			c-3.9-4-8.7-5.9-14.3-5.9c-5.6,0-10.3,2-14.3,5.9C661,297.9,659.2,301.1,658.5,304.7z"/>
		<path class="st1" d="M775,285.8v-4.1h11.8V340H775v-7.3c-5.7,5.8-12.2,8.8-19.7,8.8c-8.9,0-16.5-3.1-22.8-9.4s-9.4-13.9-9.4-22.8
			c0-8.9,3.1-16.5,9.4-22.8c6.3-6.3,13.9-9.4,22.8-9.4C762.8,277.1,769.3,280,775,285.8z M775,313.6V305c-0.7-3.7-2.5-7-5.4-10
			c-4-3.9-8.7-5.9-14.3-5.9c-5.6,0-10.3,2-14.3,5.9c-3.9,3.9-5.9,8.7-5.9,14.3c0,5.5,2,10.3,5.9,14.2c3.9,3.9,8.7,5.9,14.3,5.9
			c5.5,0,10.3-2,14.3-5.9C772.5,320.6,774.3,317.2,775,313.6z"/>
	</g>
	<g>
		<g>
			<path class="st1" d="M318,134.8c0,0,0-67.4,0-67.5c0-0.8-62.4-3.4-67.3-3.6c-29.2-0.8-58.4-0.4-87.6-1.2
				c-30.2-0.8-60.2-3.3-90.3-5.4c0,0-49.1,38.8-51.1,42.9s0,16.4,0,16.4c0.4,2.1,18.8,2.2,20.6,2.3c12,0.7,24,1.2,35.9,2
				c28.3,2,56.6,3.6,84.8,6.2c27.3,2.5,54.8,2.7,82.1,5.7c10.7,1.2,21.3,2.8,31.8,5.2c9.8,2.2,19.8,7.4,30,5.8
				C311.5,142.8,317.1,139.9,318,134.8z"/>
			<path class="st1" d="M728.8,130.7c0,0-16.7-17.5-31-17.5l0.3,87h190.1l47-69.5H728.8z"/>
			<path class="st1" d="M334.4,69.4v53.2c14.6-9,34.7-18.4,59.7-22.7c0,0-23.8,35.8-42.2,46.9c0,0-1.7,0.7-4.5,1.5
				c52.2,5.1,245.2,24.4,275.2,31.4c29.4,6.9,58.6,20.4,58.6,20.4v-92c0,0-81.1-8.2-162.9-22.5S334.4,69.4,334.4,69.4z"/>
			<path class="st1" d="M345.2,185.2c5.2,1.5,10.9,1,16.1-0.6c4.5-1.4,8.7-3.5,12.8-5.8c1.1-0.6,7.3-5.1,8-4.8l-60.2-26.4
				c0,0,1.3,11,1.7,12.1c3.1,10.1,10.1,21.4,20.5,25.1C344.5,185,344.9,185.1,345.2,185.2z"/>
			<path class="st1" d="M331.3,228.7l-13.8-80.1C317.5,148.6,299.2,196.6,331.3,228.7z"/>
			<path class="st1" d="M290.4,222.9l25.9-80C316.3,143,284.8,183.2,290.4,222.9z"/>
			<path class="st1" d="M691.8,101.4l48.3-82.6C692.1,37.4,691.8,101.4,691.8,101.4z"/>
			<path class="st1" d="M737.9,81.4c-14.8-0.5-44.2,29.1-44.2,29.1l95.6-12.4C789.3,98.1,752.7,82,737.9,81.4z"/>
		</g>
		<path class="st1" d="M319.8,139.6c0,0,22.5-24.6,62.2-31.6c0,0-17,25.6-30.2,33.5C351.8,141.6,322.4,152.8,319.8,139.6z"/>
		<path class="st1" d="M688.5,101.6L664.2,9C643.4,56.1,688.5,101.6,688.5,101.6z"/>
	</g>
</g>
</svg>
