<?xml version="1.0" encoding="utf-8"?>
<!-- Generator: Adobe Illustrator 23.0.3, SVG Export Plug-In . SVG Version: 6.00 Build 0)  -->
<svg version="1.1" id="Capa_1" xmlns="http://www.w3.org/2000/svg" xmlns:xlink="http://www.w3.org/1999/xlink" x="0px" y="0px"
	 viewBox="0 0 457 182" style="enable-background:new 0 0 457 182;" xml:space="preserve">
<style type="text/css">
	.st0{enable-background:new    ;}
	.st1{fill:#A6C156;}
</style>
<g>
	<g class="st0">
		<path class="st1" d="M80.9,122.1H86l17.8,30.9v-30.9h5.6v43.2h-4.9l-18.1-31.3v31.3H81L80.9,122.1L80.9,122.1z"/>
		<path class="st1" d="M141.7,139.5v-2h5.6v27.9h-5.6v-3.5c-2.7,2.8-5.8,4.2-9.4,4.2c-4.3,0-7.9-1.5-10.9-4.5c-3-3-4.5-6.6-4.5-10.9
			c0-4.3,1.5-7.9,4.5-10.9s6.6-4.5,10.9-4.5C135.9,135.4,139,136.7,141.7,139.5z M141.7,152.8v-4.1c-0.3-1.8-1.2-3.3-2.6-4.8
			c-1.9-1.9-4.2-2.8-6.8-2.8s-4.9,1-6.8,2.8c-1.9,1.9-2.8,4.2-2.8,6.8c0,2.6,1,4.9,2.8,6.8c1.9,1.9,4.2,2.8,6.8,2.8
			c2.6,0,4.9-1,6.8-2.8C140.5,156.1,141.4,154.5,141.7,152.8z"/>
		<path class="st1" d="M158.9,137.6v-10.4h5.6v10.4h5v5.6h-5v22.2h-5.6v-22.2h-5v-5.6H158.9z"/>
		<path class="st1" d="M187.9,165.7c-3.5,0-6.4-1.1-8.5-3.2c-2.2-2.2-3.2-4.8-3.3-8.1v-16.9h5.6v16.7c0,1.6,0.6,3,1.8,4.2
			c1.2,1.1,2.6,1.7,4.4,1.7c1.6,0,3-0.6,4.2-1.7c1.2-1.1,1.8-2.5,1.8-4.2v-16.7h5.6v16.9c0,3.2-1.1,5.9-3.2,8.1
			C194,164.7,191.2,165.7,187.9,165.7z"/>
		<path class="st1" d="M213.1,141.3c2.1-2.8,4.6-4.3,7.7-4.4v5.8c-2.1,0.1-3.7,0.8-4.9,2c-1.8,1.8-2.8,4-2.8,6.5v14.3h-5.6v-27.8
			h5.6V141.3z"/>
		<path class="st1" d="M234.7,159.1c1,0.8,2.6,1.2,5.1,1.2c2.7,0,5-1,6.8-2.8c0.2-0.2,0.7-0.8,1.4-1.7l5.6,2c-1.4,1.9-2.3,3.2-3,3.8
			c-3,3-6.6,4.5-10.9,4.5s-7.8-1.5-10.8-4.5c-3-3-4.5-6.6-4.5-10.9c0-4.3,1.5-7.9,4.5-10.9s6.6-4.5,10.8-4.5c3.6,0,6.8,1.1,9.6,3.3
			c0.4,0.4,0.9,0.8,1.3,1.2c0.2,0.2,0.7,0.8,1.5,1.7l-2.8,2.8L234.7,159.1z M244.1,141.8c-0.6-0.5-2.1-0.7-4.3-0.7
			c-2.6,0-4.9,1-6.8,2.8c-1.9,1.9-2.8,4.2-2.8,6.8c0,2.2,0.2,3.6,0.7,4.3L244.1,141.8z"/>
		<path class="st1" d="M290.4,143.2c-3.1-1-5.5-2.5-7.5-4.4c-1.9-1.9-2.9-4.3-2.9-7.1c0-2.8,1-5.1,3-7.1c2-2,4.3-3,7.2-3
			c2.8,0,5.2,1,7.1,3c1.1,1.1,2.1,2.8,2.8,5.2l-5.1,2c-0.6-1.7-1.2-2.7-1.7-3.2c-0.9-0.9-2-1.3-3.2-1.3c-1.2,0-2.3,0.4-3.2,1.3
			c-0.9,0.9-1.3,2-1.3,3.2s0.4,2.3,1.3,3.2c1,1,2.3,1.9,4.1,2.7c3.4,1.1,6.3,2.8,8.6,5.2c2.6,2.6,4,5.8,4,9.5s-1.3,6.9-4,9.6
			c-2.6,2.6-5.8,4-9.5,4c-3.7,0-6.9-1.3-9.6-4c-2.1-2.1-3.4-5-4-8.7l5.4-2c0.3,3.2,1.2,5.4,2.5,6.8c1.5,1.5,3.4,2.3,5.6,2.3
			c2.2,0,4.1-0.8,5.6-2.3c1.5-1.5,2.3-3.4,2.3-5.6c0-2.2-0.8-4.1-2.3-5.6C294.3,145.2,292.5,144.1,290.4,143.2z"/>
		<path class="st1" d="M314.7,161.9v12.8h-5.6v-37.2h5.6v2.5c2.7-3.2,5.8-4.8,9.4-4.8c4.3,0,7.9,1.5,10.9,4.5s4.5,6.6,4.5,10.9
			c0,4.3-1.5,7.9-4.5,10.9c-3,3-6.6,4.5-10.9,4.5C320.6,166.1,317.4,164.7,314.7,161.9z M314.7,148.5v4.3c0.3,1.7,1.2,3.2,2.6,4.6
			c1.9,1.9,4.2,2.8,6.8,2.8s4.9-1,6.8-2.8c1.9-1.9,2.8-4.2,2.8-6.8c0-2.6-1-4.9-2.8-6.8s-4.2-2.8-6.8-2.8s-4.9,1-6.8,2.8
			C315.9,145.3,315.1,146.8,314.7,148.5z"/>
		<path class="st1" d="M370.4,139.5v-2h5.6v27.9h-5.6v-3.5c-2.7,2.8-5.8,4.2-9.4,4.2c-4.3,0-7.9-1.5-10.9-4.5s-4.5-6.6-4.5-10.9
			c0-4.3,1.5-7.9,4.5-10.9c3-3,6.6-4.5,10.9-4.5C364.6,135.4,367.7,136.7,370.4,139.5z M370.4,152.8v-4.1c-0.3-1.8-1.2-3.3-2.6-4.8
			c-1.9-1.9-4.2-2.8-6.8-2.8c-2.7,0-4.9,1-6.8,2.8c-1.9,1.9-2.8,4.2-2.8,6.8c0,2.6,1,4.9,2.8,6.8c1.9,1.9,4.2,2.8,6.8,2.8
			c2.6,0,4.9-1,6.8-2.8C369.2,156.1,370.1,154.5,370.4,152.8z"/>
	</g>
	<g>
		<g>
			<path class="st1" d="M152,67.4c0,0,0-32.2,0-32.3c0-0.4-29.8-1.6-32.2-1.7c-14-0.4-27.9-0.2-41.9-0.6
				c-14.4-0.4-28.8-1.6-43.2-2.6c0,0-23.5,18.5-24.4,20.5c-1,2,0,7.8,0,7.8c0.2,1,9,1.1,9.8,1.1c5.7,0.3,11.5,0.6,17.2,1
				c13.5,1,27,1.7,40.5,3c13,1.2,26.2,1.3,39.2,2.7c5.1,0.6,10.2,1.3,15.2,2.5c4.7,1.1,9.5,3.5,14.3,2.8
				C148.9,71.2,151.6,69.8,152,67.4z"/>
			<path class="st1" d="M348.3,65.4c0,0-8-8.4-14.8-8.4l0.1,41.6h90.8L447,65.4H348.3z"/>
			<path class="st1" d="M159.9,36.1v25.4c7-4.3,16.6-8.8,28.5-10.8c0,0-11.4,17.1-20.2,22.4c0,0-0.8,0.3-2.2,0.7
				c24.9,2.4,117.2,11.7,131.5,15c14,3.3,28,9.7,28,9.7v-44c0,0-38.8-3.9-77.8-10.8S159.9,36.1,159.9,36.1z"/>
			<path class="st1" d="M165,91.4c2.5,0.7,5.2,0.5,7.7-0.3c2.2-0.7,4.2-1.7,6.1-2.8c0.5-0.3,3.5-2.4,3.8-2.3l-28.8-12.6
				c0,0,0.6,5.3,0.8,5.8c1.5,4.8,4.8,10.2,9.8,12C164.7,91.3,164.9,91.4,165,91.4z"/>
			<path class="st1" d="M158.4,112.2l-6.6-38.3C151.8,73.9,143,96.9,158.4,112.2z"/>
			<path class="st1" d="M138.8,109.5l12.4-38.2C151.2,71.3,136.2,90.5,138.8,109.5z"/>
			<path class="st1" d="M330.7,51.4l23.1-39.5C330.8,20.8,330.7,51.4,330.7,51.4z"/>
			<path class="st1" d="M352.7,41.8c-7.1-0.2-21.1,13.9-21.1,13.9l45.7-5.9C377.2,49.8,359.8,42.1,352.7,41.8z"/>
		</g>
		<path class="st1" d="M152.9,69.6c0,0,10.8-11.8,29.7-15.1c0,0-8.1,12.2-14.4,16C168.2,70.6,154.1,76,152.9,69.6z"/>
		<path class="st1" d="M329.1,51.5L317.5,7.2C307.5,29.7,329.1,51.5,329.1,51.5z"/>
	</g>
</g>
</svg>
